<svg xmlns="http://www.w3.org/2000/svg" viewBox="0 0 128 128" role="img" aria-labelledby="title">
  <title id="title">Makullveny cabin logo</title>
  <defs>
    <linearGradient id="sky" x1="0" x2="1" y1="0" y2="1">
      <stop offset="0" stop-color="#dceffc" />
      <stop offset="1" stop-color="#7f9f9f" />
    </linearGradient>
    <linearGradient id="wood" x1="0" x2="1" y1="0" y2="1">
      <stop offset="0" stop-color="#c98c50" />
      <stop offset="1" stop-color="#5e3725" />
    </linearGradient>
  </defs>
  <rect width="128" height="128" rx="28" fill="#18251f" />
  <circle cx="96" cy="25" r="12" fill="#f7ddb0" opacity=".95" />
  <path d="M14 82c13-17 26-24 38-21 10 2 16 10 26 8 10-1 17-10 36-7v43H14z" fill="url(#sky)" opacity=".9" />
  <path d="M28 68 64 38l36 30v37H28z" fill="url(#wood)" />
  <path d="M21 70 64 33l43 37-8 9-35-30-35 30z" fill="#3b2419" />
  <rect x="42" y="75" width="18" height="30" rx="3" fill="#2b1d17" />
  <rect x="68" y="73" width="20" height="17" rx="3" fill="#f6d99b" />
  <path d="M73 82h10M78 77v10" stroke="#6b4127" stroke-width="3" stroke-linecap="round" />
  <path d="M40 92h18M67 95h24M34 61h60" stroke="#f0b266" stroke-width="4" stroke-linecap="round" opacity=".7" />
  <path d="M22 103c24-6 55-6 84 0" stroke="#f8f2e6" stroke-width="8" stroke-linecap="round" />
</svg>
